<svg xmlns="http://www.w3.org/2000/svg" viewBox="0 0 162.77 145.86"><defs><style>.cls-1{font-size:12px;fill:#231f20;font-family:MyriadPro-Regular, Myriad Pro;}.cls-2{letter-spacing:-0.01em;}.cls-3{fill:#f47523;}.cls-4{fill:#fcfefe;}</style></defs><title>Asset 1</title><g id="Layer_2" data-name="Layer 2"><g id="Layer_1-2" data-name="Layer 1"><text class="cls-1" transform="translate(61.54 76.23)">#fbff<tspan class="cls-2" x="23.29" y="0">f</tspan><tspan x="26.64" y="0">e</tspan></text><rect class="cls-3" width="162.77" height="145.86" rx="18" ry="18"/><path class="cls-4" d="M148.89,124.69H129.45c-.06-.28-.11-.56-.19-.9L85.54,16.92a5.85,5.85,0,0,0-1.91-2.41,4.78,4.78,0,0,0-2.91-.92,4.94,4.94,0,0,0-5,3.33L31.86,124.29a2.18,2.18,0,0,0-.08.4H13.89a3.33,3.33,0,1,0,0,6.66h135a3.33,3.33,0,1,0,0-6.66ZM80.06,30.21l12.4,30.31H67.83ZM53.3,96.87h54l11.41,27.82H42.05Z"/><path class="cls-4" d="M148.45,132.27H14.32a5,5,0,1,1,0-10H148.45a5,5,0,1,1,0,10Z"/></g></g></svg>