<svg xmlns="http://www.w3.org/2000/svg" viewBox="0 0 315.5 376.17"><title>Asset 1</title><g id="Layer_2" data-name="Layer 2"><g id="Layer_1-2" data-name="Layer 1"><path d="M.21,206.26A29.08,29.08,0,0,1,2,192.45a9.79,9.79,0,0,1,1.16-2.39c2-2.83,4-5.61,6.1-8.38A7.6,7.6,0,0,1,10.93,180c3.14-2.26,5.74-5.13,8.68-7.61A22.26,22.26,0,0,1,25,168.81a16.67,16.67,0,0,0,2.35-1.27c3.08-1.95,6.23-3.82,9.21-5.92a29.57,29.57,0,0,0,8.74-8.73c2.44-4.06,5-8,7.56-12,.43-.67.86-1.34,1.35-2,4.17-5.29,6.54-11.45,8.66-17.74,1-2.9,2-5.8,2.94-8.7a20.59,20.59,0,0,0,.89-3.13c1-6.35,1.84-12.69,1.14-19.17-.52-4.81-.55-9.67-.9-14.49-.17-2.47-.56-4.91-.85-7.36Q65,59.18,64,50.06c-.1-.88-.16-1.77-.3-2.65a103.49,103.49,0,0,1-1.39-18.6,14.83,14.83,0,0,0-1.38-6.32,6.75,6.75,0,0,1-.1-5.71,9.47,9.47,0,0,0,.5-5A22.15,22.15,0,0,1,61,7.68a23,23,0,0,1,.8-4.95A3.46,3.46,0,0,1,67.68,1a12.81,12.81,0,0,1,2.45,2.93c1.76,2.74,3.42,5.54,5.1,8.34a10.6,10.6,0,0,1,1,2.12c1.24,3.76,2.37,7.53,2.34,11.57a36.72,36.72,0,0,0,.66,5.59,16.19,16.19,0,0,1,0,5,27.14,27.14,0,0,0-.3,4.13c0,5.63.07,11.27,0,16.9,0,2.07-.27,4.14-.36,6.21-.12,3.06-.25,6.12-.29,9.18q-.1,7.11-.08,14.23c0,2.66.07,5.34.28,8a166.83,166.83,0,0,1,.24,17.18,53.83,53.83,0,0,0,.67,7.36c.12,1.08.49,2.13.57,3.2a95.67,95.67,0,0,0,2.76,14.85,42.65,42.65,0,0,1,.84,5.26c.47,4.23.86,8.46,1.3,12.69.1.88.26,1.76.43,2.63.82,4.17,1.65,8.33,2.45,12.51a25,25,0,0,1,.48,3.22c.27,4.24.47,8.48.72,12.72.13,2.17.27,4.34.5,6.5a54.46,54.46,0,0,1,.47,8.28,64.57,64.57,0,0,0,.29,6.51c.16,2.76.43,5.52.5,8.28a74.9,74.9,0,0,0,1.18,11.19A83,83,0,0,1,93.13,240a50.41,50.41,0,0,0,.57,5.59,5.44,5.44,0,0,0,.6,1.66,1.05,1.05,0,0,0,1.53.38A14.94,14.94,0,0,0,98,245.26c1.81-2.59,3.52-5.25,5.28-7.88a13.51,13.51,0,0,1,1.16-1.71c2.34-2.57,4-5.64,6.07-8.4a5.88,5.88,0,0,0,.81-1.24c1.94-4.68,5.41-8.49,7.52-13.08.62-1.34,1.25-2.68,1.9-4,.48-1,1-1.92,1.51-2.88a77.32,77.32,0,0,0,5.59-11.73A122.57,122.57,0,0,0,133.2,171a15.2,15.2,0,0,1,.81-3.75,23.92,23.92,0,0,0,1.49-6.93,49,49,0,0,1,.66-5,22.34,22.34,0,0,1,1.15-4.28,5,5,0,0,1,5.49-3.17,4.42,4.42,0,0,1,4.12,3.64,14.15,14.15,0,0,1,.07,5.31c-.62,3.8-1.2,7.6-1.79,11.41a17.14,17.14,0,0,0-.29,2.35c-.06,3.65.06,7.3-.72,10.91a9,9,0,0,0,5.54,9.34c.85.26,1.67.6,2.5.92a14.63,14.63,0,0,0,13.64-1.07,22.1,22.1,0,0,0,6-5.27c1.93-2.5,3.93-5,5.77-7.53,3.09-4.33,4.79-9.29,6.07-14.39a81.74,81.74,0,0,1,2.82-10.27,23.65,23.65,0,0,0,1.11-4.91,15.31,15.31,0,0,1,2.12-5.49,4.79,4.79,0,0,1,6.23-1.7,3.42,3.42,0,0,1,1.91,2.84c.2,3.64.66,7.33-.78,10.84-1.12,2.72-1.22,5.58-1.47,8.43a3.25,3.25,0,0,0,.08.88,1.2,1.2,0,0,0,1.54,1,8,8,0,0,0,2.09-1.08c2.1-1.64,4.15-3.35,6.18-5.07,1.06-.9,2-1.87,3-2.83A13,13,0,0,1,213,153.2a15.16,15.16,0,0,0,2.38-1.2c3.13-1.87,6.25-3.78,9.38-5.67a5,5,0,0,1,1.31-.68c4.61-1.19,8.82-3.48,13.36-4.85A97.37,97.37,0,0,1,257.08,137c2.85-.32,5.69-.82,8.54-1,3.65-.19,7.31-.23,11-.14,5.33.14,10.66.51,16,.69,2.56.09,5.13,0,7.7,0a10.81,10.81,0,0,0,5-1.52c2.65-1.42,4.76-3.53,7.14-5.28.62-.45,1.17-1.25,2.06-.86s.88,1.46,1,2.33a9.23,9.23,0,0,1-.82,4.33,17,17,0,0,1-5,6.91c-3.64,2.95-7.57,5.3-12.37,6a22.9,22.9,0,0,1-7.36-.37c-5.49-1-11-.93-16.54-1h-5a19.47,19.47,0,0,0-3,0,95.91,95.91,0,0,1-11.24.67,20.37,20.37,0,0,0-7.17,1.73,21,21,0,0,1-2.21.84,65.72,65.72,0,0,0-11.05,4.23,40,40,0,0,1-6.67,2.45,28,28,0,0,0-7.31,3.86,7,7,0,0,1-1.2.86c-2.67,1-4.44,3.21-6.54,5-4.19,3.58-8.06,7.6-13.12,10.08a15,15,0,0,0-3.36,2.41,7.39,7.39,0,0,1-4.76,2.14,6.1,6.1,0,0,0-5.12,3c-3.24,4.89-7.39,9-11.24,13.39a20.66,20.66,0,0,1-4.95,4.2c-4.7,2.83-9.71,3-14.89,2.08-1.85-.32-3.69-.69-5.51-1.16s-3.59-1.06-5.37-1.66c-1-.35-2-.87-3-1.23-2.08-.74-2.88-.49-3.93,1.38-1.16,2.06-2.26,4.17-3.28,6.31-1.43,3-2.69,6.15-4.18,9.15a45.17,45.17,0,0,1-3.4,5.56,56.61,56.61,0,0,0-4.42,7,19.88,19.88,0,0,1-1.19,2.05q-3.68,5.56-7.38,11.11a10.87,10.87,0,0,1-1,1.46,37.16,37.16,0,0,0-4.82,7.1,87.43,87.43,0,0,1-6.45,9.21A13.73,13.73,0,0,0,99.14,263c-.77,1.6-1.55,3.21-2.16,4.88a10.49,10.49,0,0,0-.74,3.43c0,3.06.15,6.12.24,9.18.18,5.73.92,11.42,1.23,17.13a149.63,149.63,0,0,1,0,16c-.25,4.82-.86,9.64-1.34,14.45a42,42,0,0,1-1.73,9.61,6.1,6.1,0,0,0-.28,1.75,59.81,59.81,0,0,1-1.8,10.81c-.83,3.72-2.34,7.14-5.37,9.68a5.25,5.25,0,0,1-.66.59,23.83,23.83,0,0,0-7,6.26,1.15,1.15,0,0,1-.43.39c-3.56,1.6-6.64,4.25-10.86,4.38-5.05.15-9.93,1.67-14.92,2.34a9.54,9.54,0,0,0-2.51.85,19.77,19.77,0,0,1-6,1.41A6.88,6.88,0,0,1,37.84,373a17.26,17.26,0,0,1-1.11-1.76,9.36,9.36,0,0,0-2.63-3.16A24.79,24.79,0,0,1,30,363.41c-2.13-2.81-3.34-6-4.83-9.15a10.66,10.66,0,0,1-1.06-5.16,31.94,31.94,0,0,0-.43-5.6,10.68,10.68,0,0,1,.67-6.09,13.72,13.72,0,0,0,.7-2.57,22,22,0,0,1,4.86-9.7A12.3,12.3,0,0,0,31,323.71c2.38-3.66,5.38-6.81,8.18-10.14a107.54,107.54,0,0,1,9-9,8.74,8.74,0,0,0,1.24-1.27c2.82-4,6.89-6.78,10.35-10.15,1.27-1.23,2.51-2.51,3.75-3.77,2.36-2.4,4.73-4.77,7-7.21,1.42-1.51,2.73-3.13,4.09-4.69l2.89-3.38c1.67-1.95,3.33-3.91,5-5.85A6.75,6.75,0,0,0,84.18,263c-.54-6.79-1-13.59-1.62-20.38-.7-7.47-1.71-14.92-2.3-22.4-.3-3.73-.81-7.46-.47-11.24.14-1.56-.18-3.15-.18-4.73,0-8.32-1-16.57-1.55-24.85-.5-7-1.67-13.93-2.64-20.87-1-7.14-2.1-14.28-3.2-21.4a14.35,14.35,0,0,0-1-3.39,1.32,1.32,0,0,0-2.39-.18,10.89,10.89,0,0,0-1,1.79c-.77,1.61-1.5,3.23-2.24,4.85a31.62,31.62,0,0,1-3.75,6.37A16.41,16.41,0,0,0,60,149.32a44.27,44.27,0,0,1-4.82,7.09,128.53,128.53,0,0,1-13.66,14.8,44.45,44.45,0,0,1-7.38,4.91c-1.85,1.13-3.83,2-5.75,3.07a106.08,106.08,0,0,0-10.61,8c-.27.28-.56.56-.81.86-4,4.9-4,5.05-4.09,10.37a10.2,10.2,0,0,1-.12,2.07c-.66,3.12.15,6.08.89,9.06a4,4,0,0,0,3.43,3.25,29.09,29.09,0,0,0,3.81.53c2.67.13,5.34.15,8,.21a7,7,0,0,0,3.93-1.13c2.59-1.63,5.55-2.59,7.94-4.59a5,5,0,0,1,3.4-.8c1.38,0,2.76.08,4.15.09a4.63,4.63,0,0,0,4.22-2.26A15.64,15.64,0,0,1,55.12,202a8.28,8.28,0,0,0,2.47-3.62q.13-.44.3-.84a4.51,4.51,0,0,1,6-2.73,3.47,3.47,0,0,1,2.41,2.78c.5,2.89.45,5.69-1.38,8.23a49.75,49.75,0,0,1-8.13,8.59,8.2,8.2,0,0,1-2.32,1.28c-2.39.94-4.82,1.77-7.22,2.7a40,40,0,0,1-10.06,2.4,21.88,21.88,0,0,0-3.78.69,32.33,32.33,0,0,1-18.69.17,17.46,17.46,0,0,0-2-.44,26.88,26.88,0,0,1-8.44-3.51,7.67,7.67,0,0,1-4-6.82C.2,209.2.21,207.52.21,206.26Zm86.45,91.41.2,0-.33-3.82c-.15-1.67-.32-3.34-.45-5-.06-.89,0-1.78-.08-2.67,0-.68-.08-1.43-.81-1.79s-1.32.13-1.85.57a10.59,10.59,0,0,0-1.31,1.2c-3.29,3.81-7.21,7-10.7,10.63-4.73,4.89-9.93,9.32-14.88,14a25.73,25.73,0,0,0-4.39,4.78,25.31,25.31,0,0,1-5.42,6.11c-2.58,2.16-4.59,4.89-6.76,7.45s-3.31,5.79-4.42,8.95a20.84,20.84,0,0,0-.64,2.59,2.82,2.82,0,0,0,.55,2.52,12.1,12.1,0,0,1,2.68,7.08,5.44,5.44,0,0,0,1.61,3.41c.34.36.64.75,1,1.12,1.38,1.53,2.25,3.2,1.79,5.38A3.32,3.32,0,0,0,44,363.7c1.06.73,2.12,1.46,3.23,2.1a8.72,8.72,0,0,0,6.56,1.05c1.45-.34,2.88-.74,4.33-1A14.7,14.7,0,0,0,62.84,364c1-.61,2-1.3,3-1.86a20.16,20.16,0,0,1,4.77-2.31,10.07,10.07,0,0,0,5.72-3.4A12.67,12.67,0,0,1,77.85,355a12.44,12.44,0,0,0,3.76-5.59,37.65,37.65,0,0,0,1.3-4.24c.7-3.28,1.28-6.58,1.92-9.88a64.51,64.51,0,0,0,1.35-11.45,46.71,46.71,0,0,1,1.19-10.58,11,11,0,0,0,.27-3.23c-.2-3.05-.52-6.1-.77-9.15C86.78,299.83,86.73,298.75,86.66,297.67Z"/><path d="M144.58,107.94a11.7,11.7,0,0,1-2.29-.42,19.64,19.64,0,0,0-7.79-1.45,4.68,4.68,0,0,1-3.85-1.89,4,4,0,0,1-1-1.8c-.65-4.5.57-8.94,6.47-10.23a8.37,8.37,0,0,1,5.23.35,11,11,0,0,0,8.62,0,29.86,29.86,0,0,1,8-2c.76-.06,1.62-.32,2.1.6.38.73.15,1.49-.84,2.27-1.55,1.23-3.15,2.38-4.74,3.55-.63.47-1.33.85-1.95,1.34-1.35,1.06-1.63,2-.92,3.31a5.33,5.33,0,0,1,.37.81c.84,2.47-.14,4.3-2.74,4.88C147.77,107.59,146.19,107.71,144.58,107.94Z"/></g></g></svg>