<svg xmlns="http://www.w3.org/2000/svg" viewBox="0 0 228.85 53.99"><defs><style>.cls-1{fill:#fff;}</style></defs><title>logo</title><g id="Layer_2" data-name="Layer 2"><g id="Layer_1-2" data-name="Layer 1"><path class="cls-1" d="M25.48,35.82a13,13,0,0,1-11.87,7.11A13,13,0,0,1,1.75,35.82,15.89,15.89,0,0,1,0,28.3a16,16,0,0,1,1.75-7.56,13,13,0,0,1,4.83-5.2,13.39,13.39,0,0,1,7-1.87,13.36,13.36,0,0,1,7,1.87,13.06,13.06,0,0,1,4.84,5.2,16.14,16.14,0,0,1,1.75,7.56A16,16,0,0,1,25.48,35.82ZM23.22,22a10.48,10.48,0,0,0-3.9-4.32,10.62,10.62,0,0,0-5.71-1.55A10.41,10.41,0,0,0,4,22,14,14,0,0,0,2.6,28.3,13.89,13.89,0,0,0,4,34.62a10.37,10.37,0,0,0,9.61,5.87A10.62,10.62,0,0,0,19.32,39a10.45,10.45,0,0,0,3.9-4.33,13.77,13.77,0,0,0,1.41-6.32A13.83,13.83,0,0,0,23.22,22Z"/><path class="cls-1" d="M47.28,15.12A7.2,7.2,0,0,1,50.06,18a8.68,8.68,0,0,1,1,4.17,9,9,0,0,1-1,4.22,7.48,7.48,0,0,1-2.78,3,7.6,7.6,0,0,1-4,1.1H34.84V41.31a1.18,1.18,0,0,1-.34.87,1.21,1.21,0,0,1-.88.35,1.2,1.2,0,0,1-1.22-1.22v-26a1.2,1.2,0,0,1,1.22-1.22h9.63A7.93,7.93,0,0,1,47.28,15.12Zm-.21,11.31a6.29,6.29,0,0,0,1.47-4.26,5.81,5.81,0,0,0-1.47-4.11,5,5,0,0,0-3.82-1.58H34.84V28.14h8.41A4.78,4.78,0,0,0,47.07,26.43Z"/><path class="cls-1" d="M72.29,40.49a1.22,1.22,0,0,1,.34.86,1.12,1.12,0,0,1-.34.85,1.22,1.22,0,0,1-.88.33H56.5a1.2,1.2,0,0,1-1.22-1.22v-26a1.2,1.2,0,0,1,1.22-1.22H71.41a1.19,1.19,0,0,1,.88.35,1.18,1.18,0,0,1,.34.87,1.1,1.1,0,0,1-.34.85,1.22,1.22,0,0,1-.88.33H57.84v10.2H69.58A1.17,1.17,0,0,1,70.8,27.9a1.12,1.12,0,0,1-.34.85,1.21,1.21,0,0,1-.88.32H57.84V40.13H71.41A1.16,1.16,0,0,1,72.29,40.49Z"/><path class="cls-1" d="M98.55,14.4a1.17,1.17,0,0,1,.3.82v26a1.27,1.27,0,0,1-.36,1,1.25,1.25,0,0,1-.89.35,1.31,1.31,0,0,1-.55-.13,1.39,1.39,0,0,1-.43-.28L79.19,18.63v22.8a1,1,0,0,1-.35.77,1.11,1.11,0,0,1-.79.33,1.07,1.07,0,0,1-.81-.33,1,1,0,0,1-.33-.77V15.3a1.15,1.15,0,0,1,1.18-1.22,1.14,1.14,0,0,1,1,.45L96.58,38.14V15.22a1.1,1.1,0,0,1,1.14-1.14A1.1,1.1,0,0,1,98.55,14.4Z"/><path class="cls-1" d="M139,41.35a1.19,1.19,0,0,1-.61,1,1.18,1.18,0,0,1-.61.16,1.35,1.35,0,0,1-.69-.16,4.57,4.57,0,0,1-1.83-2.11,11.67,11.67,0,0,1-.69-4.67c0-1.9-.53-3.23-1.58-4a6.25,6.25,0,0,0-3.78-1.15h-9V41.31a1.21,1.21,0,0,1-.33.87,1.11,1.11,0,0,1-.85.35,1.47,1.47,0,0,1-1-.35,1.09,1.09,0,0,1-.4-.87v-26a1.18,1.18,0,0,1,.34-.87,1.19,1.19,0,0,1,.88-.35h11a8.45,8.45,0,0,1,4.14,1,7.28,7.28,0,0,1,2.87,2.74,7.57,7.57,0,0,1,1,3.94,7.82,7.82,0,0,1-1.36,4.57,6.77,6.77,0,0,1-3.55,2.7,6.22,6.22,0,0,1,2.92,2.34,7.1,7.1,0,0,1,1.18,4,14.61,14.61,0,0,0,.35,3.54,2.3,2.3,0,0,0,1,1.42A1.19,1.19,0,0,1,139,41.35ZM129.9,28.14a5.53,5.53,0,0,0,2.64-.93,6,6,0,0,0,2-2.2,6.65,6.65,0,0,0,.73-3.17A5.16,5.16,0,0,0,133.66,18a5.63,5.63,0,0,0-4.08-1.52h-9.43V28.14Z"/><path class="cls-1" d="M167.53,35.82a13.36,13.36,0,0,1-23.73,0,16,16,0,0,1-1.75-7.52,16.14,16.14,0,0,1,1.75-7.56,13.06,13.06,0,0,1,4.84-5.2,14.15,14.15,0,0,1,14.06,0,13,13,0,0,1,4.83,5.2,16,16,0,0,1,1.75,7.56A15.89,15.89,0,0,1,167.53,35.82ZM165.28,22A11,11,0,0,0,150,17.66a10.48,10.48,0,0,0-3.9,4.32,13.82,13.82,0,0,0-1.4,6.32,13.76,13.76,0,0,0,1.4,6.32A10.45,10.45,0,0,0,150,39a10.71,10.71,0,0,0,15.32-4.33,13.89,13.89,0,0,0,1.4-6.32A14,14,0,0,0,165.28,22Z"/><path class="cls-1" d="M107.78,54a1,1,0,0,1-1-1V1a1,1,0,1,1,2,0V53A1,1,0,0,1,107.78,54Z"/><path class="cls-1" d="M223.55,17.05a11.74,11.74,0,0,1,4,5.16,18.7,18.7,0,0,1,1.32,7.13,18.87,18.87,0,0,1-1.32,7.24,11.45,11.45,0,0,1-4,5.1A11.08,11.08,0,0,1,217,43.57H206.62a1.2,1.2,0,0,1-1.22-1.22v-26a1.2,1.2,0,0,1,1.22-1.22H217A11,11,0,0,1,223.55,17.05Zm.3,20.85a14.12,14.12,0,0,0,2.4-8.56,16.54,16.54,0,0,0-1-5.95A9.32,9.32,0,0,0,222,19.12a9,9,0,0,0-5.46-1.6H208V41.17h8.62Q221.46,41.17,223.85,37.9Z"/><path class="cls-1" d="M201.22,41.39h-4.75c0-.07,0-.13-.05-.22L185.73,15a1.5,1.5,0,0,0-.46-.59,1.25,1.25,0,0,0-.72-.22,1.19,1.19,0,0,0-1.21.81L172.61,41.29a.36.36,0,0,0,0,.1h-4.38a.82.82,0,0,0-.81.82.81.81,0,0,0,.81.81h33a.81.81,0,0,0,.81-.81A.82.82,0,0,0,201.22,41.39Zm-16.83-23.1,3,7.41h-6Zm-6.54,16.3h13.21l2.78,6.8H175.1Z"/></g></g></svg>